<svg xmlns="http://www.w3.org/2000/svg" version="1.1" xmlns:xlink="http://www.w3.org/1999/xlink"
	width="1080" height="1080" viewBox="0 0 1080 1080">
		<title>generator logo</title>
		<style>
			.s0 { fill: #80a6f2 }
			.s1 { fill: #fda322 }
			.s2 { fill: #7494d5 }
			.s3 { fill: #b5c7eb }
			.s4 { fill: #ffffff }
		</style>
		<g id="SvgjsG1679">
			<path id="SvgjsPath1678" fill-rule="evenodd" class="s0" d="m286 165v30h-30v-30z"></path>
			<path id="SvgjsPath1677" fill-rule="evenodd" class="s0" d="m316 165v30h-30v-30z"></path>
			<path id="SvgjsPath1676" fill-rule="evenodd" class="s0" d="m346 165v30h-30v-30z"></path>
			<path id="SvgjsPath1675" fill-rule="evenodd" class="s0" d="m376 165v30h-30v-30z"></path>
			<path id="SvgjsPath1674" fill-rule="evenodd" class="s0" d="m406 165v30h-30v-30z"></path>
			<path id="SvgjsPath1673" fill-rule="evenodd" class="s0" d="m436 165v30h-30v-30z"></path>
			<path id="SvgjsPath1672" fill-rule="evenodd" class="s0" d="m466 165v30h-30v-30z"></path>
			<path id="SvgjsPath1671" fill-rule="evenodd" class="s0" d="m496 165v30h-30v-30z"></path>
			<path id="SvgjsPath1670" fill-rule="evenodd" class="s0" d="m526 165v30h-30v-30z"></path>
			<path id="SvgjsPath1669" fill-rule="evenodd" class="s0" d="m556 165v30h-30v-30z"></path>
			<path id="SvgjsPath1668" fill-rule="evenodd" class="s0" d="m586 165v30h-30v-30z"></path>
			<path id="SvgjsPath1667" fill-rule="evenodd" class="s0" d="m616 165v30h-30v-30z"></path>
			<path id="SvgjsPath1666" fill-rule="evenodd" class="s0" d="m286 195v30h-30v-30z"></path>
			<path id="SvgjsPath1665" fill-rule="evenodd" class="s0" d="m346 195v30h-30v-30z"></path>
			<path id="SvgjsPath1664" fill-rule="evenodd" class="s0" d="m406 195v30h-30v-30z"></path>
			<path id="SvgjsPath1663" fill-rule="evenodd" class="s0" d="m466 195v30h-30v-30z"></path>
			<path id="SvgjsPath1662" fill-rule="evenodd" class="s0" d="m496 195v30h-30v-30z"></path>
			<path id="SvgjsPath1661" fill-rule="evenodd" class="s0" d="m526 195v30h-30v-30z"></path>
			<path id="SvgjsPath1660" fill-rule="evenodd" class="s0" d="m556 195v30h-30v-30z"></path>
			<path id="SvgjsPath1659" fill-rule="evenodd" class="s0" d="m586 195v30h-30v-30z"></path>
			<path id="SvgjsPath1658" fill-rule="evenodd" class="s0" d="m616 195v30h-30v-30z"></path>
			<path id="SvgjsPath1657" fill-rule="evenodd" class="s0" d="m286 225v30h-30v-30z"></path>
			<path id="SvgjsPath1656" fill-rule="evenodd" class="s0" d="m316 225v30h-30v-30z"></path>
			<path id="SvgjsPath1655" fill-rule="evenodd" class="s0" d="m346 225v30h-30v-30z"></path>
			<path id="SvgjsPath1654" fill-rule="evenodd" class="s0" d="m376 225v30h-30v-30z"></path>
			<path id="SvgjsPath1653" fill-rule="evenodd" class="s0" d="m406 225v30h-30v-30z"></path>
			<path id="SvgjsPath1652" fill-rule="evenodd" class="s0" d="m436 225v30h-30v-30z"></path>
			<path id="SvgjsPath1651" fill-rule="evenodd" class="s0" d="m466 225v30h-30v-30z"></path>
			<path id="SvgjsPath1650" fill-rule="evenodd" class="s0" d="m496 225v30h-30v-30z"></path>
			<path id="SvgjsPath1649" fill-rule="evenodd" class="s0" d="m526 225v30h-30v-30z"></path>
			<path id="SvgjsPath1648" fill-rule="evenodd" class="s0" d="m556 225v30h-30v-30z"></path>
			<path id="SvgjsPath1647" fill-rule="evenodd" class="s0" d="m586 225v30h-30v-30z"></path>
			<path id="SvgjsPath1646" fill-rule="evenodd" class="s0" d="m616 225v30h-30v-30z"></path>
			<path id="SvgjsPath1645" fill-rule="evenodd" class="s0" d="m646 165v30h-30v-30z"></path>
			<path id="SvgjsPath1644" fill-rule="evenodd" class="s0" d="m646 195v30h-30v-30z"></path>
			<path id="SvgjsPath1643" fill-rule="evenodd" class="s0" d="m646 225v30h-30v-30z"></path>
			<path id="SvgjsPath1642" fill-rule="evenodd" class="s1" d="m315 285v30h-30v-30z"></path>
			<path id="SvgjsPath1641" fill-rule="evenodd" class="s1" d="m345 285v30h-30v-30z"></path>
			<path id="SvgjsPath1640" fill-rule="evenodd" class="s1" d="m375 285v30h-30v-30z"></path>
			<path id="SvgjsPath1639" fill-rule="evenodd" class="s1" d="m405 285v30h-30v-30z"></path>
			<path id="SvgjsPath1638" fill-rule="evenodd" class="s1" d="m435 285v30h-30v-30z"></path>
			<path id="SvgjsPath1637" fill-rule="evenodd" class="s1" d="m465 285v30h-30v-30z"></path>
			<path id="SvgjsPath1636" fill-rule="evenodd" class="s1" d="m495 285v30h-30v-30z"></path>
			<path id="SvgjsPath1635" fill-rule="evenodd" class="s1" d="m525 285v30h-30v-30z"></path>
			<path id="SvgjsPath1634" fill-rule="evenodd" class="s1" d="m555 285v30h-30v-30z"></path>
			<path id="SvgjsPath1633" fill-rule="evenodd" class="s1" d="m585 285v30h-30v-30z"></path>
			<path id="SvgjsPath1632" fill-rule="evenodd" class="s1" d="m615 285v30h-30v-30z"></path>
			<path id="SvgjsPath1631" fill-rule="evenodd" class="s1" d="m645 285v30h-30v-30z"></path>
			<path id="SvgjsPath1630" fill-rule="evenodd" class="s1" d="m315 315v30h-30v-30z"></path>
			<path id="SvgjsPath1629" fill-rule="evenodd" class="s1" d="m345 315v30h-30v-30z"></path>
			<path id="SvgjsPath1628" fill-rule="evenodd" class="s1" d="m375 315v30h-30v-30z"></path>
			<path id="SvgjsPath1627" fill-rule="evenodd" class="s1" d="m405 315v30h-30v-30z"></path>
			<path id="SvgjsPath1626" fill-rule="evenodd" class="s1" d="m435 315v30h-30v-30z"></path>
			<path id="SvgjsPath1625" fill-rule="evenodd" class="s1" d="m465 315v30h-30v-30z"></path>
			<path id="SvgjsPath1624" fill-rule="evenodd" class="s1" d="m495 315v30h-30v-30z"></path>
			<path id="SvgjsPath1623" fill-rule="evenodd" class="s1" d="m525 315v30h-30v-30z"></path>
			<path id="SvgjsPath1622" fill-rule="evenodd" class="s1" d="m555 315v30h-30v-30z"></path>
			<path id="SvgjsPath1621" fill-rule="evenodd" class="s1" d="m585 315v30h-30v-30z"></path>
			<path id="SvgjsPath1620" fill-rule="evenodd" class="s1" d="m615 315v30h-30v-30z"></path>
			<path id="SvgjsPath1619" fill-rule="evenodd" class="s1" d="m645 315v30h-30v-30z"></path>
			<path id="SvgjsPath1618" fill-rule="evenodd" class="s1" d="m315 345v30h-30v-30z"></path>
			<path id="SvgjsPath1617" fill-rule="evenodd" class="s1" d="m345 345v30h-30v-30z"></path>
			<path id="SvgjsPath1616" fill-rule="evenodd" class="s1" d="m375 345v30h-30v-30z"></path>
			<path id="SvgjsPath1615" fill-rule="evenodd" class="s1" d="m615 345v30h-30v-30z"></path>
			<path id="SvgjsPath1614" fill-rule="evenodd" class="s1" d="m645 345v30h-30v-30z"></path>
			<path id="SvgjsPath1613" fill-rule="evenodd" class="s1" d="m315 375v30h-30v-30z"></path>
			<path id="SvgjsPath1612" fill-rule="evenodd" class="s1" d="m345 375v30h-30v-30z"></path>
			<path id="SvgjsPath1611" fill-rule="evenodd" class="s1" d="m405 375v30h-30v-30z"></path>
			<path id="SvgjsPath1610" fill-rule="evenodd" class="s1" d="m435 375v30h-30v-30z"></path>
			<path id="SvgjsPath1609" fill-rule="evenodd" class="s1" d="m465 375v30h-30v-30z"></path>
			<path id="SvgjsPath1608" fill-rule="evenodd" class="s1" d="m495 375v30h-30v-30z"></path>
			<path id="SvgjsPath1607" fill-rule="evenodd" class="s1" d="m525 375v30h-30v-30z"></path>
			<path id="SvgjsPath1606" fill-rule="evenodd" class="s1" d="m555 375v30h-30v-30z"></path>
			<path id="SvgjsPath1605" fill-rule="evenodd" class="s1" d="m615 375v30h-30v-30z"></path>
			<path id="SvgjsPath1604" fill-rule="evenodd" class="s1" d="m645 375v30h-30v-30z"></path>
			<path id="SvgjsPath1603" fill-rule="evenodd" class="s2" d="m735 375v30h-30v-30z"></path>
			<path id="SvgjsPath1602" fill-rule="evenodd" class="s1" d="m915 375v30h-30v-30z"></path>
			<path id="SvgjsPath1601" fill-rule="evenodd" class="s2" d="m225 405v30h-30v-30z"></path>
			<path id="SvgjsPath1600" fill-rule="evenodd" class="s1" d="m315 405v30h-30v-30z"></path>
			<path id="SvgjsPath1599" fill-rule="evenodd" class="s1" d="m345 405v30h-30v-30z"></path>
			<path id="SvgjsPath1598" fill-rule="evenodd" class="s1" d="m405 405v30h-30v-30z"></path>
			<path id="SvgjsPath1597" fill-rule="evenodd" class="s1" d="m465 405v30h-30v-30z"></path>
			<path id="SvgjsPath1596" fill-rule="evenodd" class="s1" d="m555 405v30h-30v-30z"></path>
			<path id="SvgjsPath1595" fill-rule="evenodd" class="s1" d="m615 405v30h-30v-30z"></path>
			<path id="SvgjsPath1594" fill-rule="evenodd" class="s1" d="m645 405v30h-30v-30z"></path>
			<path id="SvgjsPath1593" fill-rule="evenodd" class="s2" d="m735 405v30h-30v-30z"></path>
			<path id="SvgjsPath1592" fill-rule="evenodd" class="s2" d="m765 405v30h-30v-30z"></path>
			<path id="SvgjsPath1591" fill-rule="evenodd" class="s2" d="m195 435v30h-30v-30z"></path>
			<path id="SvgjsPath1590" fill-rule="evenodd" class="s2" d="m225 435v30h-30v-30z"></path>
			<path id="SvgjsPath1589" fill-rule="evenodd" class="s1" d="m315 435v30h-30v-30z"></path>
			<path id="SvgjsPath1588" fill-rule="evenodd" class="s1" d="m345 435v30h-30v-30z"></path>
			<path id="SvgjsPath1587" fill-rule="evenodd" class="s1" d="m405 435v30h-30v-30z"></path>
			<path id="SvgjsPath1586" fill-rule="evenodd" class="s1" d="m435 435v30h-30v-30z"></path>
			<path id="SvgjsPath1585" fill-rule="evenodd" class="s1" d="m465 435v30h-30v-30z"></path>
			<path id="SvgjsPath1584" fill-rule="evenodd" class="s1" d="m495 435v30h-30v-30z"></path>
			<path id="SvgjsPath1583" fill-rule="evenodd" class="s1" d="m525 435v30h-30v-30z"></path>
			<path id="SvgjsPath1582" fill-rule="evenodd" class="s1" d="m555 435v30h-30v-30z"></path>
			<path id="SvgjsPath1581" fill-rule="evenodd" class="s1" d="m615 435v30h-30v-30z"></path>
			<path id="SvgjsPath1580" fill-rule="evenodd" class="s1" d="m645 435v30h-30v-30z"></path>
			<path id="SvgjsPath1579" fill-rule="evenodd" class="s2" d="m795 435v30h-30v-30z"></path>
			<path id="SvgjsPath1578" fill-rule="evenodd" class="s3" d="m165 465v30h-30v-30z"></path>
			<path id="SvgjsPath1577" fill-rule="evenodd" class="s1" d="m315 465v30h-30v-30z"></path>
			<path id="SvgjsPath1576" fill-rule="evenodd" class="s1" d="m285 285v30h-30v-30z"></path>
			<path id="SvgjsPath1575" fill-rule="evenodd" class="s1" d="m285 315v30h-30v-30z"></path>
			<path id="SvgjsPath1574" fill-rule="evenodd" class="s1" d="m285 345v30h-30v-30z"></path>
			<path id="SvgjsPath1573" fill-rule="evenodd" class="s1" d="m285 375v30h-30v-30z"></path>
			<path id="SvgjsPath1572" fill-rule="evenodd" class="s1" d="m285 405v30h-30v-30z"></path>
			<path id="SvgjsPath1571" fill-rule="evenodd" class="s1" d="m285 435v30h-30v-30z"></path>
			<path id="SvgjsPath1570" fill-rule="evenodd" class="s1" d="m285 465v30h-30v-30z"></path>
			<path id="SvgjsPath1569" fill-rule="evenodd" class="s1" d="m345 465v30h-30v-30z"></path>
			<path id="SvgjsPath1568" fill-rule="evenodd" class="s1" d="m405 465v30h-30v-30z"></path>
			<path id="SvgjsPath1567" fill-rule="evenodd" class="s1" d="m555 465v30h-30v-30z"></path>
			<path id="SvgjsPath1566" fill-rule="evenodd" class="s1" d="m615 465v30h-30v-30z"></path>
			<path id="SvgjsPath1565" fill-rule="evenodd" class="s1" d="m645 465v30h-30v-30z"></path>
			<path id="SvgjsPath1564" fill-rule="evenodd" class="s2" d="m735 465v30h-30v-30z"></path>
			<path id="SvgjsPath1563" fill-rule="evenodd" class="s2" d="m765 465v30h-30v-30z"></path>
			<path id="SvgjsPath1562" fill-rule="evenodd" class="s2" d="m795 465v30h-30v-30z"></path>
			<path id="SvgjsPath1561" fill-rule="evenodd" class="s2" d="m825 465v30h-30v-30z"></path>
			<path id="SvgjsPath1560" fill-rule="evenodd" class="s3" d="m135 495v30h-30v-30z"></path>
			<path id="SvgjsPath1559" fill-rule="evenodd" class="s3" d="m165 495v30h-30v-30z"></path>
			<path id="SvgjsPath1558" fill-rule="evenodd" class="s3" d="m195 495v30h-30v-30z"></path>
			<path id="SvgjsPath1557" fill-rule="evenodd" class="s3" d="m225 495v30h-30v-30z"></path>
			<path id="SvgjsPath1556" fill-rule="evenodd" class="s1" d="m345 495v30h-30v-30z"></path>
			<path id="SvgjsPath1555" fill-rule="evenodd" class="s1" d="m405 495v30h-30v-30z"></path>
			<path id="SvgjsPath1554" fill-rule="evenodd" class="s1" d="m435 495v30h-30v-30z"></path>
			<path id="SvgjsPath1553" fill-rule="evenodd" class="s1" d="m465 495v30h-30v-30z"></path>
			<path id="SvgjsPath1552" fill-rule="evenodd" class="s1" d="m495 495v30h-30v-30z"></path>
			<path id="SvgjsPath1551" fill-rule="evenodd" class="s1" d="m525 495v30h-30v-30z"></path>
			<path id="SvgjsPath1550" fill-rule="evenodd" class="s1" d="m555 495v30h-30v-30z"></path>
			<path id="SvgjsPath1549" fill-rule="evenodd" class="s2" d="m675 495v30h-30v-30z"></path>
			<path id="SvgjsPath1548" fill-rule="evenodd" class="s2" d="m705 495v30h-30v-30z"></path>
			<path id="SvgjsPath1547" fill-rule="evenodd" class="s2" d="m735 495v30h-30v-30z"></path>
			<path id="SvgjsPath1546" fill-rule="evenodd" class="s2" d="m765 495v30h-30v-30z"></path>
			<path id="SvgjsPath1545" fill-rule="evenodd" class="s2" d="m795 495v30h-30v-30z"></path>
			<path id="SvgjsPath1544" fill-rule="evenodd" class="s2" d="m825 495v30h-30v-30z"></path>
			<path id="SvgjsPath1543" fill-rule="evenodd" class="s2" d="m855 495v30h-30v-30z"></path>
			<path id="SvgjsPath1542" fill-rule="evenodd" class="s3" d="m105 525v30h-30v-30z"></path>
			<path id="SvgjsPath1541" fill-rule="evenodd" class="s3" d="m135 525v30h-30v-30z"></path>
			<path id="SvgjsPath1540" fill-rule="evenodd" class="s3" d="m165 525v30h-30v-30z"></path>
			<path id="SvgjsPath1539" fill-rule="evenodd" class="s3" d="m195 525v30h-30v-30z"></path>
			<path id="SvgjsPath1538" fill-rule="evenodd" class="s3" d="m225 525v30h-30v-30z"></path>
			<path id="SvgjsPath1537" fill-rule="evenodd" class="s3" d="m255 525v30h-30v-30z"></path>
			<path id="SvgjsPath1536" fill-rule="evenodd" class="s3" d="m285 525v30h-30v-30z"></path>
			<path id="SvgjsPath1535" fill-rule="evenodd" class="s3" d="m315 525v30h-30v-30z"></path>
			<path id="SvgjsPath1534" fill-rule="evenodd" class="s1" d="m405 525v30h-30v-30z"></path>
			<path id="SvgjsPath1533" fill-rule="evenodd" class="s1" d="m435 525v30h-30v-30z"></path>
			<path id="SvgjsPath1532" fill-rule="evenodd" class="s1" d="m465 525v30h-30v-30z"></path>
			<path id="SvgjsPath1531" fill-rule="evenodd" class="s1" d="m495 525v30h-30v-30z"></path>
			<path id="SvgjsPath1530" fill-rule="evenodd" class="s1" d="m525 525v30h-30v-30z"></path>
			<path id="SvgjsPath1529" fill-rule="evenodd" class="s2" d="m615 525v30h-30v-30z"></path>
			<path id="SvgjsPath1528" fill-rule="evenodd" class="s2" d="m645 525v30h-30v-30z"></path>
			<path id="SvgjsPath1527" fill-rule="evenodd" class="s2" d="m675 525v30h-30v-30z"></path>
			<path id="SvgjsPath1526" fill-rule="evenodd" class="s2" d="m705 525v30h-30v-30z"></path>
			<path id="SvgjsPath1525" fill-rule="evenodd" class="s2" d="m735 525v30h-30v-30z"></path>
			<path id="SvgjsPath1524" fill-rule="evenodd" class="s2" d="m765 525v30h-30v-30z"></path>
			<path id="SvgjsPath1523" fill-rule="evenodd" class="s2" d="m795 525v30h-30v-30z"></path>
			<path id="SvgjsPath1522" fill-rule="evenodd" class="s2" d="m825 525v30h-30v-30z"></path>
			<path id="SvgjsPath1521" fill-rule="evenodd" class="s2" d="m855 525v30h-30v-30z"></path>
			<path id="SvgjsPath1520" fill-rule="evenodd" class="s2" d="m885 525v30h-30v-30z"></path>
			<path id="SvgjsPath1519" fill-rule="evenodd" class="s1" d="m945 375v30h-30v-30z"></path>
			<path id="SvgjsPath1518" fill-rule="evenodd" class="s1" d="m975 375v30h-30v-30z"></path>
			<path id="SvgjsPath1517" fill-rule="evenodd" class="s1" d="m1005 375v30h-30v-30z"></path>
			<path id="SvgjsPath1516" fill-rule="evenodd" class="s1" d="m915 645v30h-30v-30z"></path>
			<path id="SvgjsPath1515" fill-rule="evenodd" class="s1" d="m945 645v30h-30v-30z"></path>
			<path id="SvgjsPath1514" fill-rule="evenodd" class="s1" d="m975 645v30h-30v-30z"></path>
			<path id="SvgjsPath1513" fill-rule="evenodd" class="s1" d="m1005 645v30h-30v-30z"></path>
			<path id="SvgjsPath1512" fill-rule="evenodd" class="s2" d="m915 735v30h-30v-30z"></path>
			<path id="SvgjsPath1511" fill-rule="evenodd" class="s2" d="m945 735v30h-30v-30z"></path>
			<path id="SvgjsPath1510" fill-rule="evenodd" class="s2" d="m885 735v30h-30v-30z"></path>
			<path id="SvgjsPath1509" fill-rule="evenodd" class="s2" d="m795 285v30h-30v-30z"></path>
			<path id="SvgjsPath1508" fill-rule="evenodd" class="s2" d="m825 285v30h-30v-30z"></path>
			<path id="SvgjsPath1507" fill-rule="evenodd" class="s2" d="m855 285v30h-30v-30z"></path>
			<path id="SvgjsPath1506" fill-rule="evenodd" class="s2" d="m885 285v30h-30v-30z"></path>
			<path id="SvgjsPath1505" fill-rule="evenodd" class="s3" d="m135 555v30h-30v-30z"></path>
			<path id="SvgjsPath1504" fill-rule="evenodd" class="s3" d="m165 555v30h-30v-30z"></path>
			<path id="SvgjsPath1503" fill-rule="evenodd" class="s3" d="m195 555v30h-30v-30z"></path>
			<path id="SvgjsPath1502" fill-rule="evenodd" class="s3" d="m225 555v30h-30v-30z"></path>
			<path id="SvgjsPath1501" fill-rule="evenodd" class="s3" d="m255 555v30h-30v-30z"></path>
			<path id="SvgjsPath1500" fill-rule="evenodd" class="s3" d="m285 555v30h-30v-30z"></path>
			<path id="SvgjsPath1499" fill-rule="evenodd" class="s3" d="m315 555v30h-30v-30z"></path>
			<path id="SvgjsPath1498" fill-rule="evenodd" class="s3" d="m345 555v30h-30v-30z"></path>
			<path id="SvgjsPath1497" fill-rule="evenodd" class="s3" d="m375 555v30h-30v-30z"></path>
			<path id="SvgjsPath1496" fill-rule="evenodd" class="s4" d="m405 555v30h-30v-30z"></path>
			<path id="SvgjsPath1495" fill-rule="evenodd" class="s1" d="m435 555v30h-30v-30z"></path>
			<path id="SvgjsPath1494" fill-rule="evenodd" class="s1" d="m465 555v30h-30v-30z"></path>
			<path id="SvgjsPath1493" fill-rule="evenodd" class="s2" d="m555 555v30h-30v-30z"></path>
			<path id="SvgjsPath1492" fill-rule="evenodd" class="s2" d="m585 555v30h-30v-30z"></path>
			<path id="SvgjsPath1491" fill-rule="evenodd" class="s2" d="m615 555v30h-30v-30z"></path>
			<path id="SvgjsPath1490" fill-rule="evenodd" class="s2" d="m645 555v30h-30v-30z"></path>
			<path id="SvgjsPath1489" fill-rule="evenodd" class="s2" d="m675 555v30h-30v-30z"></path>
			<path id="SvgjsPath1488" fill-rule="evenodd" class="s2" d="m705 555v30h-30v-30z"></path>
			<path id="SvgjsPath1487" fill-rule="evenodd" class="s2" d="m735 555v30h-30v-30z"></path>
			<path id="SvgjsPath1486" fill-rule="evenodd" class="s2" d="m765 555v30h-30v-30z"></path>
			<path id="SvgjsPath1485" fill-rule="evenodd" class="s2" d="m795 555v30h-30v-30z"></path>
			<path id="SvgjsPath1484" fill-rule="evenodd" class="s3" d="m195 585v30h-30v-30z"></path>
			<path id="SvgjsPath1483" fill-rule="evenodd" class="s3" d="m225 585v30h-30v-30z"></path>
			<path id="SvgjsPath1482" fill-rule="evenodd" class="s3" d="m255 585v30h-30v-30z"></path>
			<path id="SvgjsPath1481" fill-rule="evenodd" class="s3" d="m285 585v30h-30v-30z"></path>
			<path id="SvgjsPath1480" fill-rule="evenodd" class="s3" d="m315 585v30h-30v-30z"></path>
			<path id="SvgjsPath1479" fill-rule="evenodd" class="s3" d="m345 585v30h-30v-30z"></path>
			<path id="SvgjsPath1478" fill-rule="evenodd" class="s3" d="m375 585v30h-30v-30z"></path>
			<path id="SvgjsPath1477" fill-rule="evenodd" class="s3" d="m405 585v30h-30v-30z"></path>
			<path id="SvgjsPath1476" fill-rule="evenodd" class="s2" d="m495 585v30h-30v-30z"></path>
			<path id="SvgjsPath1475" fill-rule="evenodd" class="s2" d="m525 585v30h-30v-30z"></path>
			<path id="SvgjsPath1474" fill-rule="evenodd" class="s2" d="m555 585v30h-30v-30z"></path>
			<path id="SvgjsPath1473" fill-rule="evenodd" class="s2" d="m585 585v30h-30v-30z"></path>
			<path id="SvgjsPath1472" fill-rule="evenodd" class="s2" d="m615 585v30h-30v-30z"></path>
			<path id="SvgjsPath1471" fill-rule="evenodd" class="s2" d="m645 585v30h-30v-30z"></path>
			<path id="SvgjsPath1470" fill-rule="evenodd" class="s2" d="m675 585v30h-30v-30z"></path>
			<path id="SvgjsPath1469" fill-rule="evenodd" class="s2" d="m705 585v30h-30v-30z"></path>
			<path id="SvgjsPath1468" fill-rule="evenodd" class="s2" d="m735 585v30h-30v-30z"></path>
			<path id="SvgjsPath1467" fill-rule="evenodd" class="s2" d="m765 585v30h-30v-30z"></path>
			<path id="SvgjsPath1466" fill-rule="evenodd" class="s3" d="m285 615v30h-30v-30z"></path>
			<path id="SvgjsPath1465" fill-rule="evenodd" class="s3" d="m255 615v30h-30v-30z"></path>
			<path id="SvgjsPath1464" fill-rule="evenodd" class="s3" d="m315 615v30h-30v-30z"></path>
			<path id="SvgjsPath1463" fill-rule="evenodd" class="s3" d="m345 615v30h-30v-30z"></path>
			<path id="SvgjsPath1462" fill-rule="evenodd" class="s3" d="m375 615v30h-30v-30z"></path>
			<path id="SvgjsPath1461" fill-rule="evenodd" class="s2" d="m525 615v30h-30v-30z"></path>
			<path id="SvgjsPath1460" fill-rule="evenodd" class="s2" d="m555 615v30h-30v-30z"></path>
			<path id="SvgjsPath1459" fill-rule="evenodd" class="s2" d="m585 615v30h-30v-30z"></path>
			<path id="SvgjsPath1458" fill-rule="evenodd" class="s2" d="m615 615v30h-30v-30z"></path>
			<path id="SvgjsPath1457" fill-rule="evenodd" class="s2" d="m645 615v30h-30v-30z"></path>
			<path id="SvgjsPath1456" fill-rule="evenodd" class="s2" d="m675 615v30h-30v-30z"></path>
			<path id="SvgjsPath1455" fill-rule="evenodd" class="s2" d="m705 615v30h-30v-30z"></path>
			<path id="SvgjsPath1454" fill-rule="evenodd" class="s2" d="m195 645v30h-30v-30z"></path>
			<path id="SvgjsPath1453" fill-rule="evenodd" class="s3" d="m345 645v30h-30v-30z"></path>
			<path id="SvgjsPath1452" fill-rule="evenodd" class="s2"
				d="m435.1 645.1l-0.2 30-30-0.2 0.2-30z"></path>
			<path id="SvgjsPath1451" fill-rule="evenodd" class="s2" d="m555 645v30h-30v-30z"></path>
			<path id="SvgjsPath1450" fill-rule="evenodd" class="s2" d="m585 645v30h-30v-30z"></path>
			<path id="SvgjsPath1449" fill-rule="evenodd" class="s2" d="m615 645v30h-30v-30z"></path>
			<path id="SvgjsPath1448" fill-rule="evenodd" class="s2" d="m645 645v30h-30v-30z"></path>
			<path id="SvgjsPath1447" fill-rule="evenodd" class="s2" d="m765 645v30h-30v-30z"></path>
			<path id="SvgjsPath1446" fill-rule="evenodd" class="s3" d="m195 675v30h-30v-30z"></path>
			<path id="SvgjsPath1445" fill-rule="evenodd" class="s2" d="m225 675v30h-30v-30z"></path>
			<path id="SvgjsPath1444" fill-rule="evenodd" class="s2" d="m255 675v30h-30v-30z"></path>
			<path id="SvgjsPath1443" fill-rule="evenodd" class="s2" d="m285 675v30h-30v-30z"></path>
			<path id="SvgjsPath1442" fill-rule="evenodd" class="s2" d="m405 675v30h-30v-30z"></path>
			<path id="SvgjsPath1441" fill-rule="evenodd" class="s2" d="m435 675v30h-30v-30z"></path>
			<path id="SvgjsPath1440" fill-rule="evenodd" class="s2" d="m495 675v30h-30v-30z"></path>
			<path id="SvgjsPath1439" fill-rule="evenodd" class="s2" d="m705 675v30h-30v-30z"></path>
			<path id="SvgjsPath1438" fill-rule="evenodd" class="s2" d="m735 675v30h-30v-30z"></path>
			<path id="SvgjsPath1437" fill-rule="evenodd" class="s2" d="m765 675v30h-30v-30z"></path>
			<path id="SvgjsPath1436" fill-rule="evenodd" class="s3" d="m195 705v30h-30v-30z"></path>
			<path id="SvgjsPath1435" fill-rule="evenodd" class="s3" d="m225 705v30h-30v-30z"></path>
			<path id="SvgjsPath1434" fill-rule="evenodd" class="s3" d="m255 705v30h-30v-30z"></path>
			<path id="SvgjsPath1433" fill-rule="evenodd" class="s3" d="m285 705v30h-30v-30z"></path>
			<path id="SvgjsPath1432" fill-rule="evenodd" class="s2" d="m315 705v30h-30v-30z"></path>
			<path id="SvgjsPath1431" fill-rule="evenodd" class="s2" d="m345 705v30h-30v-30z"></path>
			<path id="SvgjsPath1430" fill-rule="evenodd" class="s2" d="m375 705v30h-30v-30z"></path>
			<path id="SvgjsPath1429" fill-rule="evenodd" class="s2" d="m405 705v30h-30v-30z"></path>
			<path id="SvgjsPath1428" fill-rule="evenodd" class="s2" d="m435 705v30h-30v-30z"></path>
			<path id="SvgjsPath1427" fill-rule="evenodd" class="s2" d="m495 705v30h-30v-30z"></path>
			<path id="SvgjsPath1426" fill-rule="evenodd" class="s2" d="m525 705v30h-30v-30z"></path>
			<path id="SvgjsPath1425" fill-rule="evenodd" class="s2" d="m555 705v30h-30v-30z"></path>
			<path id="SvgjsPath1424" fill-rule="evenodd" class="s2" d="m585 705v30h-30v-30z"></path>
			<path id="SvgjsPath1423" fill-rule="evenodd" class="s2" d="m615 705v30h-30v-30z"></path>
			<path id="SvgjsPath1422" fill-rule="evenodd" class="s2" d="m645 705v30h-30v-30z"></path>
			<path id="SvgjsPath1421" fill-rule="evenodd" class="s2" d="m675 705v30h-30v-30z"></path>
			<path id="SvgjsPath1420" fill-rule="evenodd" class="s2" d="m705 705v30h-30v-30z"></path>
			<path id="SvgjsPath1419" fill-rule="evenodd" class="s2" d="m735 705v30h-30v-30z"></path>
			<path id="SvgjsPath1418" fill-rule="evenodd" class="s2" d="m765 705v30h-30v-30z"></path>
			<path id="SvgjsPath1417" fill-rule="evenodd" class="s3" d="m195 735v30h-30v-30z"></path>
			<path id="SvgjsPath1416" fill-rule="evenodd" class="s3" d="m225 735v30h-30v-30z"></path>
			<path id="SvgjsPath1415" fill-rule="evenodd" class="s3" d="m255 735v30h-30v-30z"></path>
			<path id="SvgjsPath1414" fill-rule="evenodd" class="s3" d="m285 735v30h-30v-30z"></path>
			<path id="SvgjsPath1413" fill-rule="evenodd" class="s3" d="m315 735v30h-30v-30z"></path>
			<path id="SvgjsPath1412" fill-rule="evenodd" class="s3" d="m345 735v30h-30v-30z"></path>
			<path id="SvgjsPath1411" fill-rule="evenodd" class="s3" d="m375 735v30h-30v-30z"></path>
			<path id="SvgjsPath1410" fill-rule="evenodd" class="s3" d="m405 735v30h-30v-30z"></path>
			<path id="SvgjsPath1409" fill-rule="evenodd" class="s2" d="m435 735v30h-30v-30z"></path>
			<path id="SvgjsPath1408" fill-rule="evenodd" class="s2" d="m495 735v30h-30v-30z"></path>
			<path id="SvgjsPath1407" fill-rule="evenodd" class="s2" d="m525 735v30h-30v-30z"></path>
			<path id="SvgjsPath1406" fill-rule="evenodd" class="s2" d="m555 735v30h-30v-30z"></path>
			<path id="SvgjsPath1405" fill-rule="evenodd" class="s2" d="m585 735v30h-30v-30z"></path>
			<path id="SvgjsPath1404" fill-rule="evenodd" class="s2" d="m615 735v30h-30v-30z"></path>
			<path id="SvgjsPath1403" fill-rule="evenodd" class="s2" d="m645 735v30h-30v-30z"></path>
			<path id="SvgjsPath1402" fill-rule="evenodd" class="s2" d="m675 735v30h-30v-30z"></path>
			<path id="SvgjsPath1401" fill-rule="evenodd" class="s2" d="m705 735v30h-30v-30z"></path>
			<path id="SvgjsPath1400" fill-rule="evenodd" class="s2" d="m735 735v30h-30v-30z"></path>
			<path id="SvgjsPath1399" fill-rule="evenodd" class="s2" d="m765 735v30h-30v-30z"></path>
			<path id="SvgjsPath1398" fill-rule="evenodd" class="s3" d="m195 765v30h-30v-30z"></path>
			<path id="SvgjsPath1397" fill-rule="evenodd" class="s3" d="m225 765v30h-30v-30z"></path>
			<path id="SvgjsPath1396" fill-rule="evenodd" class="s3" d="m255 765v30h-30v-30z"></path>
			<path id="SvgjsPath1395" fill-rule="evenodd" class="s3" d="m285 765v30h-30v-30z"></path>
			<path id="SvgjsPath1394" fill-rule="evenodd" class="s3" d="m315 765v30h-30v-30z"></path>
			<path id="SvgjsPath1393" fill-rule="evenodd" class="s3" d="m345 765v30h-30v-30z"></path>
			<path id="SvgjsPath1392" fill-rule="evenodd" class="s3" d="m375 765v30h-30v-30z"></path>
			<path id="SvgjsPath1391" fill-rule="evenodd" class="s3" d="m405 765v30h-30v-30z"></path>
			<path id="SvgjsPath1390" fill-rule="evenodd" class="s2" d="m435 765v30h-30v-30z"></path>
			<path id="SvgjsPath1389" fill-rule="evenodd" class="s2" d="m495 765v30h-30v-30z"></path>
			<path id="SvgjsPath1388" fill-rule="evenodd" class="s2" d="m525 765v30h-30v-30z"></path>
			<path id="SvgjsPath1387" fill-rule="evenodd" class="s2" d="m555 765v30h-30v-30z"></path>
			<path id="SvgjsPath1386" fill-rule="evenodd" class="s2" d="m585 765v30h-30v-30z"></path>
			<path id="SvgjsPath1385" fill-rule="evenodd" class="s2" d="m615 765v30h-30v-30z"></path>
			<path id="SvgjsPath1384" fill-rule="evenodd" class="s2" d="m645 765v30h-30v-30z"></path>
			<path id="SvgjsPath1383" fill-rule="evenodd" class="s2" d="m675 765v30h-30v-30z"></path>
			<path id="SvgjsPath1382" fill-rule="evenodd" class="s2" d="m705 765v30h-30v-30z"></path>
			<path id="SvgjsPath1381" fill-rule="evenodd" class="s2" d="m735 765v30h-30v-30z"></path>
			<path id="SvgjsPath1380" fill-rule="evenodd" class="s2" d="m765 765v30h-30v-30z"></path>
			<path id="SvgjsPath1379" fill-rule="evenodd" class="s3" d="m225 795v30h-30v-30z"></path>
			<path id="SvgjsPath1378" fill-rule="evenodd" class="s3" d="m255 795v30h-30v-30z"></path>
			<path id="SvgjsPath1377" fill-rule="evenodd" class="s3" d="m285 795v30h-30v-30z"></path>
			<path id="SvgjsPath1376" fill-rule="evenodd" class="s3" d="m315 795v30h-30v-30z"></path>
			<path id="SvgjsPath1375" fill-rule="evenodd" class="s3" d="m345 795v30h-30v-30z"></path>
			<path id="SvgjsPath1374" fill-rule="evenodd" class="s3" d="m375 795v30h-30v-30z"></path>
			<path id="SvgjsPath1373" fill-rule="evenodd" class="s3" d="m405 795v30h-30v-30z"></path>
			<path id="SvgjsPath1372" fill-rule="evenodd" class="s2" d="m435 795v30h-30v-30z"></path>
			<path id="SvgjsPath1371" fill-rule="evenodd" class="s2" d="m495 795v30h-30v-30z"></path>
			<path id="SvgjsPath1370" fill-rule="evenodd" class="s2" d="m525 795v30h-30v-30z"></path>
			<path id="SvgjsPath1369" fill-rule="evenodd" class="s2" d="m555 795v30h-30v-30z"></path>
			<path id="SvgjsPath1368" fill-rule="evenodd" class="s2" d="m585 795v30h-30v-30z"></path>
			<path id="SvgjsPath1367" fill-rule="evenodd" class="s2" d="m615 795v30h-30v-30z"></path>
			<path id="SvgjsPath1366" fill-rule="evenodd" class="s2" d="m645 795v30h-30v-30z"></path>
			<path id="SvgjsPath1365" fill-rule="evenodd" class="s2" d="m675 795v30h-30v-30z"></path>
			<path id="SvgjsPath1364" fill-rule="evenodd" class="s2" d="m705 795v30h-30v-30z"></path>
			<path id="SvgjsPath1363" fill-rule="evenodd" class="s2" d="m735 795v30h-30v-30z"></path>
			<path id="SvgjsPath1362" fill-rule="evenodd" class="s3" d="m285 825v30h-30v-30z"></path>
			<path id="SvgjsPath1361" fill-rule="evenodd" class="s3" d="m315 825v30h-30v-30z"></path>
			<path id="SvgjsPath1360" fill-rule="evenodd" class="s3" d="m345 825v30h-30v-30z"></path>
			<path id="SvgjsPath1359" fill-rule="evenodd" class="s3" d="m375 825v30h-30v-30z"></path>
			<path id="SvgjsPath1358" fill-rule="evenodd" class="s3" d="m405 825v30h-30v-30z"></path>
			<path id="SvgjsPath1357" fill-rule="evenodd" class="s2" d="m435 825v30h-30v-30z"></path>
			<path id="SvgjsPath1356" fill-rule="evenodd" class="s2" d="m495 825v30h-30v-30z"></path>
			<path id="SvgjsPath1355" fill-rule="evenodd" class="s2" d="m525 825v30h-30v-30z"></path>
			<path id="SvgjsPath1354" fill-rule="evenodd" class="s2" d="m555 825v30h-30v-30z"></path>
			<path id="SvgjsPath1353" fill-rule="evenodd" class="s2" d="m585 825v30h-30v-30z"></path>
			<path id="SvgjsPath1352" fill-rule="evenodd" class="s2" d="m615 825v30h-30v-30z"></path>
			<path id="SvgjsPath1351" fill-rule="evenodd" class="s2" d="m645 825v30h-30v-30z"></path>
			<path id="SvgjsPath1350" fill-rule="evenodd" class="s2" d="m675 825v30h-30v-30z"></path>
			<path id="SvgjsPath1349" fill-rule="evenodd" class="s3" d="m345 855v30h-30v-30z"></path>
			<path id="SvgjsPath1348" fill-rule="evenodd" class="s3" d="m375 855v30h-30v-30z"></path>
			<path id="SvgjsPath1347" fill-rule="evenodd" class="s3" d="m405 855v30h-30v-30z"></path>
			<path id="SvgjsPath1346" fill-rule="evenodd" class="s2" d="m435 855v30h-30v-30z"></path>
			<path id="SvgjsPath1345" fill-rule="evenodd" class="s2" d="m495 855v30h-30v-30z"></path>
			<path id="SvgjsPath1344" fill-rule="evenodd" class="s2" d="m525 855v30h-30v-30z"></path>
			<path id="SvgjsPath1343" fill-rule="evenodd" class="s2" d="m555 855v30h-30v-30z"></path>
			<path id="SvgjsPath1342" fill-rule="evenodd" class="s2" d="m585 855v30h-30v-30z"></path>
			<path id="SvgjsPath1341" fill-rule="evenodd" class="s2" d="m435 885v30h-30v-30z"></path>
			<path id="SvgjsPath1340" fill-rule="evenodd" class="s2" d="m495 885v30h-30v-30z"></path>
		</g>
	<style>@media (prefers-color-scheme: light) { :root { filter: none; } }
		@media (prefers-color-scheme: dark) { :root { filter: none; } }
</style>
</svg>